<?xml version="1.0" encoding="utf-8"?>
<!-- Generator: Adobe Illustrator 21.0.2, SVG Export Plug-In . SVG Version: 6.00 Build 0)  -->
<svg version="1.1" id="Layer_1" xmlns="http://www.w3.org/2000/svg" xmlns:xlink="http://www.w3.org/1999/xlink" x="0px" y="0px"
	 viewBox="0 0 1024 720" style="enable-background:new 0 0 1024 720;" xml:space="preserve">
<style type="text/css">
	.st0{enable-background:new    ;}
	.st1{fill:#66A4C6;}
	.st2{clip-path:url(#SVGID_2_);}
	.st3{clip-path:url(#SVGID_4_);}
	.st4{clip-path:url(#SVGID_6_);}
</style>
<g class="st0">
	<path class="st1" d="M389.7,413.4c0,3.4-0.9,5.9-2.7,7.4c-5.4,5-15.3,10.3-29.6,16c-14.4,5.7-30.1,8.6-47.1,8.6
		c-2.3,0-7.4-1.2-15.5-3.7c-8.1-2.5-17.7-5.3-28.9-8.6c-11.2-3.2-22.9-6.1-35-8.6c-12.1-2.5-23.3-3.7-33.7-3.7
		c-10.3,0-18.8,1.8-25.6,5.4c-6.7,3.6-10.1,10-10.1,19.1c0,3.1,2.9,6.5,8.8,10.3c5.8,3.8,13.5,7.4,22.9,10.8
		c10.3,3.4,22.4,6.1,36.4,8c13.9,1.9,28.7,2.9,44.4,2.9c19.3,0,39-1.4,59.2-4.3s38.5-7,54.9-12.6c16.4-5.5,29.7-12.3,40.1-20.3
		c10.3-8,15.5-17.3,15.5-28c0-7.2-3.6-13.7-10.8-19.4c-7.2-5.7-16.5-10.8-27.9-15.4c-11.4-4.6-24.5-8.6-39-12
		c-14.6-3.4-29.3-6.2-44.1-8.3c-14.8-2.1-29.1-3.7-42.7-4.9c-13.7-1.1-25.2-1.9-34.7-2.3c-38.6-0.8-69.5-2.5-92.6-5.1
		c-23.1-2.7-40.7-6.6-52.8-11.7c-12.1-5.1-20.1-12-23.9-20.6c-3.8-8.6-5.7-19.3-5.7-32.3c0-19,6.3-35.4,18.8-49.1
		c12.6-13.7,28.5-25.1,47.8-34.3c19.3-9.1,40.3-16.4,62.9-21.7c22.7-5.3,43.9-9.4,63.6-12.3c19.7-2.9,36.6-4.7,50.5-5.4
		c13.9-0.8,22-1.1,24.2-1.1c33.7,0,65.2,2.2,94.6,6.6c29.4,4.4,55.3,9.2,77.8,14.6c4.9,0.8,8.6,2.3,11.1,4.6
		c2.5,2.3,3.7,6.9,3.7,13.7c-0.9,7.6-4.2,13.6-9.8,18c-5.6,4.4-12.2,7.7-19.9,10c-5.4,1.1-12.8,2.5-22.2,4
		c-9.4,1.5-16.8,2.7-22.2,3.4c-6.3,0.8-17.7,1.6-34.3,2.6c-16.6,1-35.6,2.1-56.9,3.4c-21.3,1.3-43.5,2.9-66.6,4.6
		c-23.1,1.7-44.3,4-63.6,6.9c-19.3,2.9-35.2,6.3-47.8,10.3c-12.6,4-18.8,8.7-18.8,14c0,4.2,5.8,7.4,17.5,9.7
		c11.7,2.3,25.6,4.3,41.7,6c16.2,1.7,32.9,3.1,50.2,4c17.3,1,31.3,2,42.1,3.1c32.3,3.4,61.8,7.1,88.5,11.1
		c26.7,4,49.6,10.3,68.7,18.8c19.1,8.6,33.9,20.6,44.4,36c10.5,15.4,15.8,36.1,15.8,61.9c0,19.8-4.6,37-13.8,51.7
		c-9.2,14.7-20.9,27.1-35,37.4c-14.1,10.3-30,18.7-47.5,25.1c-17.5,6.5-34.6,11.6-51.2,15.4c-16.6,3.8-31.9,6.4-45.8,7.7
		c-13.9,1.3-24.5,2-31.6,2c-28.7,0-56.1-3.7-82.1-11.1c-26-7.4-48.9-16.8-68.7-28.3c-19.8-11.4-35.5-24-47.1-37.7
		c-11.7-13.7-17.5-26.8-17.5-39.4c0-14.8,3.8-27.2,11.4-37.1c7.6-9.9,17.5-17.7,29.6-23.4c12.1-5.7,25.3-9.7,39.7-12
		c14.4-2.3,28.3-3.4,41.7-3.4c12.6,0,26.1,0.8,40.7,2.3c14.6,1.5,29.4,3.9,44.4,7.1c15,3.2,30.1,7.2,45.1,12
		c15,4.8,29.5,10.4,43.4,16.8C388.8,410.4,389.7,411.9,389.7,413.4z"/>
	<path class="st1" d="M687.9,532.7c-0.5,4.2-1.2,7.9-2.4,11.1c-1.1,3.2-3.1,6.2-6.1,8.8c-2.9,2.7-7.3,5-13.1,7.1
		c-5.8,2.1-13.9,4.1-24.2,6c-13.9-2.7-25.2-8-34-16c-8.8-8-15.7-18.5-20.9-31.4c-5.2-12.9-8.6-28.5-10.4-46.8
		c-1.8-18.3-2.7-39.4-2.7-63.4c0-18.3,2.5-37.3,7.4-57.1c4.9-19.8,11.8-39.4,20.5-58.8c8.8-19.4,18.7-37.8,30-55.1
		c11.2-17.3,23.2-32.6,36-46c12.8-13.3,25.8-23.9,39-31.7c13.2-7.8,25.9-11.7,38-11.7c21.5,0,41.2,4.9,58.9,14.6
		c17.7,9.7,33.3,21.7,46.8,36s24.7,29.6,33.7,46c9,16.4,15.5,31.2,19.5,44.5l22.2,67.4c7.2-0.4,13.1-1,17.8-2
		c4.7-0.9,8.8-1.9,12.1-2.9c3.4-0.9,6.6-2,9.8-3.1c3.1-1.1,6.5-2.1,10.1-2.9c0.4,1.5,0.7,3.8,0.7,6.9c0,4.2-1.3,11-4,20.6
		c-2.7,9.5-7,24.2-12.8,44l-5.4,6.9l-4.7,4c3.1,27.4,5.2,46.5,6.1,57.4c0.9,10.8,1.3,16.5,1.3,16.8c0,6.9-2.1,14-6.4,21.4
		c-4.3,7.4-10,14.3-17.2,20.6c-7.2,6.3-15.5,11.4-24.9,15.4c-9.4,4-19.3,6-29.6,6c-4.9,0-8.6-2.2-11.1-6.6c-2.5-4.4-3.7-10.4-3.7-18
		c0-5.3,0.2-12.1,0.7-20.3c0.4-8.2,0.7-16.6,0.7-25.4c0-11-0.8-21.4-2.4-31.1c-1.6-9.7-5.3-16.6-11.1-20.8l-170.3-19.4L687.9,532.7z
		 M839.3,366.6c-0.5-9.1-1.5-18.6-3-28.3c-1.6-9.7-4.8-19.5-9.8-29.4c-9.4-19-17.2-34.3-23.2-45.7s-11.4-20.3-16.2-26.5
		c-4.7-6.3-8.8-10.4-12.1-12.3c-3.4-1.9-7.1-2.9-11.1-2.9c-5.4,0-10.8,1.8-16.2,5.4c-5.4,3.6-9.9,9.2-13.5,16.8
		c-9.4,18.3-18.7,37-27.9,56.2c-9.2,19.2-15.6,38.9-19.2,59.1L839.3,366.6z"/>
</g>
<g>
	<g>
		<defs>
			<path id="SVGID_1_" d="M323.9,43.6c-6.7,0-16,3.1-18.9,7.8c-3.4,5.5-1.1,12.4,5.6,15.1l-2.6,4.7c-8.8,13.3-16.4,18.9-16.4,18.9
				c-31.7-2.3-25.1-23.3-25.1-23.3c1.4-0.5,4.3-1.6,6.8-3.9c5-4.6,3.8-9.9,3.6-10.4c-1.5-5.9-8.8-7.5-9.4-7.6
				c-6.3-1.3-13.7,1-18.3,5.2c-4.3,3.9-6,9.1-4.1,13.4c1.5,3.4,4.8,5,6.2,5.6c0,0,0,9.3-15,17s-24.4,7-24.4,7s-21.1-2.3-19.7-13.5
				c1-0.2,14.1-3.5,18.8-12.7c0.6-1.2,3.7-7.3-0.1-11.8s-13-5.7-22.5-2.4c0,0-6.8-28.5-23.9-33c0,0-10.5,4.9-0.5,39.9
				c-8.8,2.3-15.4,8-16.5,14c-1.1,5.9,3.6,9.7,4.2,10.1c5,3.8,13.5,4.3,21.5,1.2c0,0,8,5.1-8.8,20.2s-43.8,6.1-47.4,2.7
				c0.5-0.3,4.8-2.3,4.6-7.2c-0.2-4.8-4.5-8.7-6.6-9.4c-1.1-0.4-8-2.6-15.7,0.5c-6.4,2.6-13.1,8.9-11.6,15.1
				c1.3,5.2,7.7,8.1,14.1,7.8c3.9-0.2,5.3-0.6,6.8-1.5c0,0,7.7,17.9-10.2,28.9c0,0-12.8,3.7-32.4-7c2.9-3.9,3.2-8.3,0.7-11.5
				c-2.4-3.1-7.4-5.3-13.1-4.1c-4.3,0.9-7.1,3.4-8,4.3c0,0-24.6-2.8-26.3,2.6c0,0,21.7-0.3,70.2,51.7l221.8-63
				c0,0,11.9-57.9,31.6-83.7C342.9,31.3,342.3,24.6,323.9,43.6z"/>
		</defs>
		<clipPath id="SVGID_2_">
			<use xlink:href="#SVGID_1_"  style="overflow:visible;"/>
		</clipPath>
		<g transform="matrix(1 0 2.980232e-08 1 0 3.814697e-06)" class="st2">
			
				<image style="overflow:visible;enable-background:new    ;" width="640" height="1136" xlink:href="4C0E738D4E8F091E.jpeg"  transform="matrix(0.774 -0.2205 6.198271e-02 0.2175 -102.3235 62.1771)">
			</image>
		</g>
	</g>
</g>
<g>
	<g>
		<defs>
			
				<rect id="SVGID_3_" x="87.7" y="149.4" transform="matrix(0.9617 -0.274 0.274 0.9617 -34.3561 61.3231)" width="229.3" height="8.5"/>
		</defs>
		<clipPath id="SVGID_4_">
			<use xlink:href="#SVGID_3_"  style="overflow:visible;"/>
		</clipPath>
		<g class="st3">
			
				<image style="overflow:visible;enable-background:new    ;" width="640" height="1136" xlink:href="4C0E738D4E8F0922.jpeg"  transform="matrix(0.7676 -0.2187 6.198271e-02 0.2175 -90.9358 46.1631)">
			</image>
		</g>
	</g>
</g>
<g>
	<g>
		<defs>
			
				<rect id="SVGID_5_" x="90.6" y="160.8" transform="matrix(0.9617 -0.274 0.274 0.9617 -37.0413 62.5067)" width="229.3" height="6.1"/>
		</defs>
		<clipPath id="SVGID_6_">
			<use xlink:href="#SVGID_5_"  style="overflow:visible;"/>
		</clipPath>
		<g class="st4">
			
				<image style="overflow:visible;enable-background:new    ;" width="640" height="1136" xlink:href="4C0E738D4E8F0922.jpeg"  transform="matrix(0.7676 -0.2187 6.198271e-02 0.2175 -90.9358 46.1631)">
			</image>
		</g>
	</g>
</g>
</svg>
